<svg xmlns="http://www.w3.org/2000/svg" width="43.028" height="32.271" viewBox="0 0 43.028 32.271"><defs><style>.a{fill:#1d1d1d;opacity:0.5;}</style></defs><path class="a" d="M8.964,6.586H3.586V4.793H8.964ZM23.307,15.55a5.378,5.378,0,1,0,5.378,5.378A5.385,5.385,0,0,0,23.307,15.55ZM43.028,8.378V35.271H0V8.378H10.631a3.583,3.583,0,0,0,2.983-1.6L16.135,3H30.478L33,6.781a3.583,3.583,0,0,0,2.983,1.6ZM8.964,15.55a1.793,1.793,0,1,0-1.793,1.793A1.792,1.792,0,0,0,8.964,15.55Zm23.307,5.378a8.964,8.964,0,1,0-8.964,8.964A8.965,8.965,0,0,0,32.271,20.928Z" transform="translate(0 -3)"/></svg>