<svg xmlns="http://www.w3.org/2000/svg" width="94.945" height="33.806" viewBox="0 0 94.945 33.806"><defs><style>.a{fill:#fefefe;}</style></defs><g transform="translate(0.002 0)"><g transform="translate(-0.002 0)"><path class="a" d="M21.509,26.068a2.232,2.232,0,0,1,.268,1.181,3.321,3.321,0,0,1-.67,2.219,17.265,17.265,0,0,1-3.216,3.056,5.892,5.892,0,0,1-3.469,1.27q-2.719,0-4.149-3.183a10.272,10.272,0,0,1-2.627,2.54,5.216,5.216,0,0,1-2.629.643,4.547,4.547,0,0,1-3.594-1.627A6.2,6.2,0,0,1,0,27.93a11.761,11.761,0,0,1,1.216-5.312,10.852,10.852,0,0,1,3.348-4,9.716,9.716,0,0,1,4.774-1.841A44.482,44.482,0,0,1,11.929,4.917Q13.851,0,16.949,0a3.063,3.063,0,0,1,2.558,1.4,7.174,7.174,0,0,1,1.027,4.219,27.8,27.8,0,0,1-1.966,9.375A69.779,69.779,0,0,1,13.3,26a7.756,7.756,0,0,0,.625,2.969,1.416,1.416,0,0,0,1.234.893A3.057,3.057,0,0,0,17.127,29a26.006,26.006,0,0,0,2.678-2.859,1.252,1.252,0,0,1,.964-.5.828.828,0,0,1,.739.431ZM7.614,29.64a11.067,11.067,0,0,0,1.719-2.058,23.807,23.807,0,0,1-.359-4.326q0-.862.071-2.79A6,6,0,0,0,5.773,23.1a8.087,8.087,0,0,0-1.31,4.475q0,2.612,1.786,2.612a2.158,2.158,0,0,0,1.366-.554ZM15.2,5.931a44.218,44.218,0,0,0-1.163,6.31q-.482,3.9-.7,8.154,4-8.736,4-14.029a7.5,7.5,0,0,0-.223-2.109c-.156-.5-.339-.752-.554-.752q-.687,0-1.368,2.415Z" transform="translate(0.002 0)"/><path class="a" d="M88.694,65.494a7.963,7.963,0,0,1-1.054-4.364,26.652,26.652,0,0,1,.411-4.118A38.8,38.8,0,0,1,89.1,52.3a3.012,3.012,0,0,1,.859-1.562,2.824,2.824,0,0,1,1.716-.429q1.824,0,1.824,1.216a28.433,28.433,0,0,1-.67,4.147,30.3,30.3,0,0,0-.873,5.317,3.779,3.779,0,0,0,.286,1.645,1,1,0,0,0,.966.574,2.7,2.7,0,0,0,1.609-.893A32.122,32.122,0,0,0,97.4,59.5a1.259,1.259,0,0,1,.966-.5.824.824,0,0,1,.732.429,2.232,2.232,0,0,1,.27,1.181,3.284,3.284,0,0,1-.681,2.219q-3.533,4.324-6.611,4.324A3.713,3.713,0,0,1,88.694,65.494Zm1.54-18.337a2.616,2.616,0,0,1-.866-1.618,2.817,2.817,0,0,1,.346-1.716,1.72,1.72,0,0,1,1.444-.879c.426.058.629.5.913.772a.839.839,0,0,0,.58.252,1.305,1.305,0,0,0,.893-.513,1.47,1.47,0,0,1,1.7-.321.949.949,0,0,1,.317.406,3.138,3.138,0,0,1,.172,1.6,3.348,3.348,0,0,1-2.1,2.567,3.482,3.482,0,0,1-1.281.223,2.9,2.9,0,0,1-2.12-.763Z" transform="translate(-68.078 -33.352)"/><path class="a" d="M128.072,91.342a13.65,13.65,0,0,1-.554-4.578,29.14,29.14,0,0,1,1.321-8.832,2.705,2.705,0,0,1,1.056-1.52,3.72,3.72,0,0,1,2.056-.482,2.031,2.031,0,0,1,1,.179.743.743,0,0,1,.286.681,13.646,13.646,0,0,1-.536,2.574q-.357,1.431-.574,2.5a25.819,25.819,0,0,0-.357,2.645A20.388,20.388,0,0,1,134.42,79.5a10.334,10.334,0,0,1,2.877-2.752,5.232,5.232,0,0,1,2.594-.824,2.054,2.054,0,0,1,2.324,2.324,28.769,28.769,0,0,1-.786,5.042,25.2,25.2,0,0,0-.67,4.114q0,1.429,1.038,1.431a2.792,2.792,0,0,0,1.7-.877,28.678,28.678,0,0,0,2.629-2.841,1.252,1.252,0,0,1,.964-.5.828.828,0,0,1,.734.429,2.232,2.232,0,0,1,.268,1.181,3.284,3.284,0,0,1-.681,2.219,15.826,15.826,0,0,1-3.315,3.118,6.919,6.919,0,0,1-4.018,1.216,3.478,3.478,0,0,1-2.754-1.056,4.51,4.51,0,0,1-.935-3.062,22.3,22.3,0,0,1,.5-3.571,18.514,18.514,0,0,0,.464-3.112c0-.382-.129-.574-.393-.574q-.464,0-1.306,1.2a19.318,19.318,0,0,0-1.716,3.156,24.773,24.773,0,0,0-1.4,4.147,5.636,5.636,0,0,1-.913,2.272A2.058,2.058,0,0,1,130,92.77,1.962,1.962,0,0,1,128.072,91.342Z" transform="translate(-99.055 -58.976)"/><path class="a" d="M226.092,26.068a2.232,2.232,0,0,1,.27,1.181,3.284,3.284,0,0,1-.681,2.219,17.277,17.277,0,0,1-3.219,3.056,5.885,5.885,0,0,1-3.469,1.27q-2.719,0-4.147-3.183a10.3,10.3,0,0,1-2.629,2.54,5.207,5.207,0,0,1-2.643.643,4.551,4.551,0,0,1-3.6-1.627,6.228,6.228,0,0,1-1.411-4.241,11.79,11.79,0,0,1,1.214-5.312,10.873,10.873,0,0,1,3.348-4,9.732,9.732,0,0,1,4.774-1.841A45.22,45.22,0,0,1,216.494,4.91Q218.4-.014,221.523,0a3.069,3.069,0,0,1,2.56,1.4,7.122,7.122,0,0,1,1.02,4.219,27.8,27.8,0,0,1-1.966,9.375A69.6,69.6,0,0,1,217.878,26a7.834,7.834,0,0,0,.627,2.969,1.415,1.415,0,0,0,1.234.893A3.057,3.057,0,0,0,221.706,29a26.032,26.032,0,0,0,2.678-2.859,1.257,1.257,0,0,1,.966-.5A.824.824,0,0,1,226.092,26.068ZM212.2,29.64a11.016,11.016,0,0,0,1.716-2.058,23.82,23.82,0,0,1-.357-4.326q0-.862.071-2.79a5.99,5.99,0,0,0-3.272,2.629,8.087,8.087,0,0,0-1.306,4.486q0,2.612,1.786,2.612a2.158,2.158,0,0,0,1.35-.565Zm7.589-23.709a43.9,43.9,0,0,0-1.163,6.31q-.482,3.9-.7,8.154,4.018-8.725,4.018-14.017a7.5,7.5,0,0,0-.223-2.109c-.156-.5-.339-.752-.556-.752q-.716-.011-1.4,2.4Z" transform="translate(-158.906 0)"/><path class="a" d="M303.989,85.055a2.232,2.232,0,0,1,.268,1.181,3.284,3.284,0,0,1-.681,2.219,13.1,13.1,0,0,1-3.736,2.966,10.366,10.366,0,0,1-5.167,1.359,7.966,7.966,0,0,1-5.828-2.038,7.462,7.462,0,0,1-2.076-5.58,10.339,10.339,0,0,1,1.038-4.6,8.493,8.493,0,0,1,2.879-3.379,7.234,7.234,0,0,1,4.17-1.25,4.283,4.283,0,0,1,4.578,4.582,5.775,5.775,0,0,1-1.77,4.241q-1.772,1.77-5.991,2.808a3.51,3.51,0,0,0,3.4,1.645,7.884,7.884,0,0,0,3.667-1.116,12.124,12.124,0,0,0,3.558-2.949,1.252,1.252,0,0,1,.964-.5.828.828,0,0,1,.73.408ZM292.01,80.98A7.132,7.132,0,0,0,291.1,84.7v.071a8.118,8.118,0,0,0,3.326-1.5,2.952,2.952,0,0,0,1.216-2.324,1.563,1.563,0,0,0-.375-1.091,1.324,1.324,0,0,0-1.02-.411A2.622,2.622,0,0,0,292.01,80.98Z" transform="translate(-222.759 -58.987)"/><path class="a" d="M368.182,81.372a1.87,1.87,0,0,1,.556,1.377,2.711,2.711,0,0,1-.223,1,6.072,6.072,0,0,1-1.609,2.216,3.431,3.431,0,0,1-2.29.893,2.284,2.284,0,0,1-1.7-.716,2.647,2.647,0,0,1-.7-1.931c0-.446.022-.942.071-1.466a7.851,7.851,0,0,0,.071-.786.645.645,0,0,0-.125-.431.4.4,0,0,0-.3-.143q-.5,0-1.359,1.2a17.486,17.486,0,0,0-1.707,3.167,25.566,25.566,0,0,0-1.4,4.147,5.725,5.725,0,0,1-.893,2.29,2.07,2.07,0,0,1-1.645.571,1.953,1.953,0,0,1-1.913-1.431,13.729,13.729,0,0,1-.554-4.578,29.141,29.141,0,0,1,1.324-8.832,2.692,2.692,0,0,1,1.053-1.52,3.725,3.725,0,0,1,2.058-.482,2.02,2.02,0,0,1,1,.179.739.739,0,0,1,.286.681,13.644,13.644,0,0,1-.536,2.574q-.357,1.431-.571,2.5a25.224,25.224,0,0,0-.357,2.645,20.338,20.338,0,0,1,2.645-5.007,10.463,10.463,0,0,1,2.859-2.752,5.083,5.083,0,0,1,2.538-.824,2.08,2.08,0,0,1,1.591.589,2.443,2.443,0,0,1,.556,1.734,15.531,15.531,0,0,1-.4,2.576h.324A1.828,1.828,0,0,1,368.182,81.372Z" transform="translate(-273.794 -58.969)"/></g></g></svg>