<svg xmlns="http://www.w3.org/2000/svg" xmlns:xlink="http://www.w3.org/1999/xlink" width="94.458" height="21.641" viewBox="0 0 94.458 21.641"><defs><style>.a{fill:url(#a);}</style><linearGradient id="a" x1="1" y1="0.634" x2="0" y2="0.634" gradientUnits="objectBoundingBox"><stop offset="0" stop-color="#ff5e62"/><stop offset="1" stop-color="#f96"/></linearGradient></defs><path class="a" d="M1.743-14.159H10.4a12.166,12.166,0,0,1,5.485,1.184,8.866,8.866,0,0,1,3.7,3.335,9.379,9.379,0,0,1,1.32,5.009A9.379,9.379,0,0,1,19.587.377a8.866,8.866,0,0,1-3.7,3.335A12.166,12.166,0,0,1,10.4,4.9H1.743ZM10.182,1.276a6.4,6.4,0,0,0,4.56-1.592,5.625,5.625,0,0,0,1.7-4.315,5.625,5.625,0,0,0-1.7-4.315,6.4,6.4,0,0,0-4.56-1.592H6.153V1.276ZM23.928-9.749h4.247V4.9H23.928Zm2.123-2.042a2.693,2.693,0,0,1-1.905-.681,2.207,2.207,0,0,1-.735-1.688,2.207,2.207,0,0,1,.735-1.688,2.693,2.693,0,0,1,1.905-.681,2.761,2.761,0,0,1,1.905.653,2.1,2.1,0,0,1,.735,1.633,2.312,2.312,0,0,1-.735,1.756A2.662,2.662,0,0,1,26.052-11.79ZM41.023-9.967a6.027,6.027,0,0,1,4.4,1.633,6.477,6.477,0,0,1,1.674,4.845V4.9H42.847V-2.835a3.818,3.818,0,0,0-.762-2.6,2.8,2.8,0,0,0-2.2-.857,3.379,3.379,0,0,0-2.559.994,4.114,4.114,0,0,0-.953,2.954V4.9H32.122V-9.749h4.056v1.715a5.631,5.631,0,0,1,2.1-1.429A7.3,7.3,0,0,1,41.023-9.967ZM66.013-15.3V4.9H61.957V3.209a5.6,5.6,0,0,1-4.573,1.905,7.6,7.6,0,0,1-3.743-.926,6.627,6.627,0,0,1-2.627-2.64,8.049,8.049,0,0,1-.953-3.974A8.049,8.049,0,0,1,51.014-6.4a6.627,6.627,0,0,1,2.627-2.64,7.6,7.6,0,0,1,3.743-.926A5.571,5.571,0,0,1,61.766-8.2v-7.1ZM58.118,1.63a3.548,3.548,0,0,0,2.668-1.1,4.079,4.079,0,0,0,1.062-2.954A4.079,4.079,0,0,0,60.786-5.38a3.548,3.548,0,0,0-2.668-1.1,3.581,3.581,0,0,0-2.695,1.1,4.079,4.079,0,0,0-1.062,2.954A4.079,4.079,0,0,0,55.424.527,3.581,3.581,0,0,0,58.118,1.63Zm26.16-4q0,.082-.082,1.143H73.117A3.45,3.45,0,0,0,74.533.922a4.688,4.688,0,0,0,2.777.789,5.622,5.622,0,0,0,2.028-.34A4.912,4.912,0,0,0,80.984.3l2.259,2.45A7.593,7.593,0,0,1,77.2,5.114a9.56,9.56,0,0,1-4.383-.966,7.084,7.084,0,0,1-2.94-2.681,7.388,7.388,0,0,1-1.034-3.893,7.484,7.484,0,0,1,1.021-3.879A7.151,7.151,0,0,1,72.668-9a8.232,8.232,0,0,1,3.988-.966,8.166,8.166,0,0,1,3.893.926,6.755,6.755,0,0,1,2.736,2.654A7.914,7.914,0,0,1,84.278-2.372ZM76.683-6.755a3.657,3.657,0,0,0-2.423.817,3.476,3.476,0,0,0-1.2,2.232h7.214a3.511,3.511,0,0,0-1.2-2.219A3.58,3.58,0,0,0,76.683-6.755ZM91.165-7.816A4.722,4.722,0,0,1,93.22-9.422,7.628,7.628,0,0,1,96.2-9.967v3.92q-.708-.054-.953-.054A3.893,3.893,0,0,0,92.39-5.08a4.126,4.126,0,0,0-1.034,3.062V4.9H87.109V-9.749h4.056Z" transform="translate(-1.743 16.527)"/></svg>