<svg xmlns="http://www.w3.org/2000/svg" width="47.335" height="43.26" viewBox="0 0 47.335 43.26"><defs><style>.a{fill:#fefefe;fill-rule:evenodd;}</style></defs><g transform="matrix(1, -0.017, 0.017, 1, -0.171, 0.62)"><path class="a" d="M10.6,5.792c1.9,4.217,1.32,8.591-1.3,9.772s-6.28-1.28-8.181-5.5S-.2,1.476,2.416.3,8.7,1.576,10.6,5.792Z" transform="translate(0 9.825)"/><path class="a" d="M1.119,5.792c-1.9,4.217-1.321,8.591,1.3,9.772s6.28-1.28,8.181-5.5S11.917,1.476,9.3.3,3.02,1.576,1.119,5.792Z" transform="translate(35.35 9.825)"/><path class="a" d="M10.463,7.164c.974,4.521-.511,8.676-3.318,9.281S1.273,13.875.3,9.355.81.679,3.617.074,9.489,2.643,10.463,7.164Z" transform="translate(11.259 0)"/><path class="a" d="M.3,7.164c-.974,4.521.511,8.676,3.317,9.281s5.872-2.569,6.846-7.09S9.951.679,7.145.074,1.273,2.643.3,7.164Z" transform="translate(24.975 0.004)"/><path class="a" d="M10.565,3.857c-.685,1.183-3.859,5.1-6.055,6.436S-.406,13.586.051,18.079s5.065,6.416,8.1,6.246,8.754-.728,12.838-.162S30.226,24.3,31.433,20s-1.492-7.043-3.6-8.6S22.21,5.2,21.126,3.06s-6.6-6.042-10.561.8Z" transform="translate(7.644 18.42)"/></g></svg>