<svg xmlns="http://www.w3.org/2000/svg" xmlns:xlink="http://www.w3.org/1999/xlink" width="29.521" height="27.061" viewBox="0 0 29.521 27.061"><defs><style>.a{fill:url(#a);}</style><linearGradient id="a" x1="0.5" x2="0.5" y2="1" gradientUnits="objectBoundingBox"><stop offset="0" stop-color="#f96"/><stop offset="1" stop-color="#ff5e62"/></linearGradient></defs><path class="a" d="M14.76,11.122c.288-1.378,1.9-7.662,6.62-7.662,2.731,0,5.68,1.908,5.68,6.154,0,4.806-4.461,10.418-12.3,15.534C6.921,20.032,2.46,14.42,2.46,9.614c0-4.285,2.914-6.156,5.63-6.156C12.915,3.458,14.418,9.763,14.76,11.122ZM0,9.614c0,5,3.764,11.662,14.76,18.447,11-6.785,14.76-13.443,14.76-18.447,0-9.793-11.867-11.1-14.76-4.6C11.885-1.455,0-.235,0,9.614Z" transform="translate(0 -1)"/></svg>