<svg xmlns="http://www.w3.org/2000/svg" width="420.784" height="408.431" viewBox="0 0 420.784 408.431"><defs><style>.a,.b,.c,.d,.e,.f,.g{fill:#fff;}.a{opacity:0.35;}.b{opacity:0.24;}.c{opacity:0.21;}.d{opacity:0.13;}.e{opacity:0.2;}.f{opacity:0.12;}.g{opacity:0.19;}</style></defs><g transform="translate(-615.935 -165.429)"><path class="a" d="M12,4.435C10.011-.964,0-.162,0,8c0,4.068,3.06,9.481,12,15,8.94-5.516,12-10.929,12-15C24-.115,14-1,12,4.435Z" transform="translate(959.785 489.534) rotate(31)"/><path class="b" d="M10.353,3.964C8.637-.694,0,0,0,7.042c0,3.51,2.64,8.18,10.353,12.939,7.713-4.759,10.353-9.429,10.353-12.939,0-7-8.628-7.764-10.353-3.078Z" transform="translate(854.738 546.069) rotate(31)"/><path class="c" d="M8.688,3.487C7.248-.422,0,.159,0,6.07c0,2.945,2.215,6.864,8.688,10.858,6.472-3.994,8.688-7.913,8.688-10.858,0-5.877-7.24-6.515-8.688-2.583Z" transform="translate(994.75 386.698) rotate(38)"/><path class="d" d="M8.688,3.487C7.248-.422,0,.159,0,6.07c0,2.945,2.215,6.864,8.688,10.858,6.472-3.994,8.688-7.913,8.688-10.858,0-5.877-7.24-6.515-8.688-2.583Z" transform="matrix(0.766, 0.643, -0.643, 0.766, 961.107, 283.145)"/><path class="b" d="M7.956,3.278C6.638-.3,0,.23,0,5.643c0,2.7,2.029,6.286,7.956,9.944,5.928-3.657,7.956-7.246,7.956-9.944,0-5.383-6.63-5.967-7.956-2.366Z" transform="matrix(0.875, -0.485, 0.485, 0.875, 635.828, 502.604)"/><path class="b" d="M5.468,2.565C4.562.1,0,.47,0,4.191c0,1.854,1.394,4.32,5.468,6.834,4.074-2.514,5.468-4.98,5.468-6.834,0-3.7-4.557-4.1-5.468-1.626Z" transform="matrix(0.875, -0.485, 0.485, 0.875, 720.515, 526.037)"/><path class="e" d="M12,4.435C10.011-.964,0-.162,0,8c0,4.068,3.06,9.481,12,15,8.94-5.516,12-10.929,12-15C24-.115,14-1,12,4.435Z" transform="matrix(0.914, -0.407, 0.407, 0.914, 615.528, 289.515)"/><path class="e" d="M12,4.435C10.011-.964,0-.162,0,8c0,4.068,3.06,9.481,12,15,8.94-5.516,12-10.929,12-15C24-.115,14-1,12,4.435Z" transform="translate(809.552 233.947) rotate(7)"/><path class="f" d="M14.889,5.262C12.421-1.437,0-.442,0,9.689,0,14.736,3.8,21.452,14.889,28.3c11.092-6.844,14.889-13.56,14.889-18.607,0-10.072-12.407-11.165-14.889-4.427Z" transform="translate(920.705 164.502) rotate(22)"/><path class="a" d="M7.8,3.233C6.508-.277,0,.245,0,5.553,0,8.2,1.989,11.717,7.8,15.3c5.812-3.586,7.8-7.105,7.8-9.75C15.6.275,9.1-.3,7.8,3.233Z" transform="matrix(0.839, 0.545, -0.545, 0.839, 1024.177, 223.854)"/><path class="b" d="M7.8,3.233C6.508-.277,0,.245,0,5.553,0,8.2,1.989,11.717,7.8,15.3c5.812-3.586,7.8-7.105,7.8-9.75C15.6.275,9.1-.3,7.8,3.233Z" transform="translate(690.876 197.079) rotate(-21)"/><path class="g" d="M7.8,3.233C6.508-.277,0,.245,0,5.553,0,8.2,1.989,11.717,7.8,15.3c5.812-3.586,7.8-7.105,7.8-9.75C15.6.275,9.1-.3,7.8,3.233Z" transform="matrix(0.914, -0.407, 0.407, 0.914, 661.838, 404.433)"/></g></svg>