<svg xmlns="http://www.w3.org/2000/svg" width="28.29" height="25.931" viewBox="0 0 28.29 25.931"><defs><style>.a{fill:#1d1d1d;}</style></defs><path class="a" d="M14.144,3.357c6.5,0,11.787,4.234,11.787,9.438,0,5.8-6.064,9.383-11.681,9.383a20.1,20.1,0,0,1-5.179-.759,15.9,15.9,0,0,1-5.035,2.145,11.032,11.032,0,0,0,.71-5.027A8.3,8.3,0,0,1,2.359,12.8c0-5.2,5.286-9.438,11.786-9.438Zm0-2.357C6.674,1,0,5.981,0,12.8a10.386,10.386,0,0,0,2.413,6.63c.065,2.157-1.206,5.252-2.349,7.506,3.067-.554,7.427-1.777,9.4-2.989a20.219,20.219,0,0,0,4.784.593c8.35,0,14.038-5.7,14.038-11.741C28.288,5.945,21.569,1,14.144,1ZM10.019,12.787a1.768,1.768,0,1,1-1.768-1.768A1.767,1.767,0,0,1,10.019,12.787Zm4.125-1.768a1.768,1.768,0,1,0,1.768,1.768A1.768,1.768,0,0,0,14.144,11.019Zm5.893,0a1.768,1.768,0,1,0,1.768,1.768A1.768,1.768,0,0,0,20.038,11.019Z" transform="translate(0 -1)"/></svg>