<svg xmlns="http://www.w3.org/2000/svg" xmlns:xlink="http://www.w3.org/1999/xlink" width="31.672" height="31.77" viewBox="0 0 31.672 31.77"><defs><style>.a{fill-rule:evenodd;fill:url(#a);}</style><linearGradient id="a" x1="0.5" x2="0.5" y2="1" gradientUnits="objectBoundingBox"><stop offset="0" stop-color="#f2685e"/><stop offset="1" stop-color="#ef2c50"/></linearGradient></defs><g transform="translate(-2.144 7.794) rotate(-20)"><path class="a" d="M6.76,3.694c1.213,2.69.842,5.48-.827,6.233S1.926,9.111.714,6.421-.129.941,1.541.188,5.547,1.005,6.76,3.694Z" transform="translate(0 6.267)"/><path class="a" d="M.714,3.694c-1.213,2.69-.842,5.48.827,6.233S5.547,9.111,6.76,6.421,7.6.941,5.932.188,1.926,1.005.714,3.694Z" transform="translate(22.549 6.267)"/><path class="a" d="M6.674,4.57C7.3,7.454,6.348,10.1,4.558,10.49S.812,8.851.191,5.967.517.433,2.307.047,6.053,1.686,6.674,4.57Z" transform="translate(7.182 0)"/><path class="a" d="M.191,4.57C-.431,7.454.516,10.1,2.307,10.49S6.052,8.851,6.674,5.967,6.348.433,4.557.047.812,1.686.191,4.57Z" transform="translate(15.931 0.002)"/><path class="a" d="M6.739,2.461A16.637,16.637,0,0,1,2.877,6.566c-1.4.852-3.136,2.1-2.845,4.966S3.263,15.625,5.2,15.516a46.715,46.715,0,0,1,8.189-.1c2.605.361,5.893.087,6.663-2.657s-.952-4.493-2.3-5.485a21.121,21.121,0,0,1-4.279-5.319C12.785.591,9.266-1.9,6.739,2.461Z" transform="translate(4.876 11.75)"/></g></svg>